#N canvas 583 23 754 609 10;
#X obj 132 148 oscparse;
#X obj 132 197 print parse-output;
#X obj 132 113 netreceive -u -b;
#X msg 144 86 listen 0;
#X msg 132 58 listen 11000;
#X obj 132 172 list trim;
#X obj 162 269 unpack f f;
#X floatatom 148 319 5 0 0 0 - - -, f 5;
#X floatatom 219 319 5 0 0 0 - - -, f 5;
#X msg 18 60 \; pd dsp 1;
#X obj 148 338 + 200;
#X obj 161 566 dac~;
#X obj 161 465 bob~;
#X obj 219 429 line~;
#X floatatom 219 383 7 0 0 0 - - -, f 7;
#X obj 299 404 loadbang;
#X floatatom 148 360 5 0 0 0 - - -, f 5;
#X obj 219 360 + 100;
#X obj 161 431 phasor~;
#X obj 219 340 * 2, f 4;
#X obj 162 241 route test;
#X text 332 428 Q 1 -8;
#X msg 18 132 \; pd dsp 0;
#X obj 219 295 t f b;
#X obj 161 526 *~;
#X obj 419 463 vline~;
#X obj 219 404 pack 0 200;
#X msg 419 430 0 \, 1 200 \, 0 500 700;
#X obj 148 404 line~;
#X obj 148 382 pack 0 200;
#X msg 299 427 3;
#X text 134 30 OSCネットワークから入力する;
#X text 225 59 ポート11000番を開いて監視;
#X text 213 86 ポート監視を停止;
#X text 247 114 UDPデータ受信　 パケット、バイナリの出力
;
#X text 195 148 OSCパケットをリストデータに変換する
;
#X text 197 171 先頭の"list"文字列を削除;
#X text 251 196 Pd コンソールウィンドウでの入力データ確認用
;
#X text 240 242 "test"で始まるリストのみを通過;
#X text 240 270 リストの第１要素と第２要素を分割;
#X text 49 360 オシレータの周波数;
#X text 47 431 ノコギリ波オシレータ;
#X text 268 380 カットオフ周波数;
#X text 205 465 レゾナンス付きローパスフィルタ;
#X text 195 566 オーディオ出力;
#X text 466 464 エンベロープを作る;
#X text 191 527 音量の制御;
#X text 420 382 音量0から1まで200ミリ秒で変化、 \; 先頭から700ミリ秒経過したら音量1.0から0まで
\; 500ミリ秒で変化するメッセージ;
#X text 18 41 DSP ON;
#X text 17 114 DSP OFF;
#X connect 0 0 5 0;
#X connect 2 0 0 0;
#X connect 3 0 2 0;
#X connect 4 0 2 0;
#X connect 5 0 1 0;
#X connect 5 0 20 0;
#X connect 6 0 7 0;
#X connect 6 1 23 0;
#X connect 7 0 10 0;
#X connect 8 0 19 0;
#X connect 10 0 16 0;
#X connect 12 0 24 0;
#X connect 13 0 12 1;
#X connect 14 0 26 0;
#X connect 15 0 30 0;
#X connect 16 0 29 0;
#X connect 17 0 14 0;
#X connect 18 0 12 0;
#X connect 19 0 17 0;
#X connect 20 0 6 0;
#X connect 23 0 8 0;
#X connect 23 1 27 0;
#X connect 24 0 11 0;
#X connect 24 0 11 1;
#X connect 25 0 24 1;
#X connect 26 0 13 0;
#X connect 27 0 25 0;
#X connect 28 0 18 0;
#X connect 29 0 28 0;
#X connect 30 0 12 2;
