#N canvas 455 23 781 706 10;
#X obj 240 667 oscparse;
#X msg 409 762 disconnect;
#X obj 401 789 netsend -u -b;
#X obj 402 688 list prepend send;
#X obj 402 713 list trim;
#X obj 240 692 print reassembled;
#X msg 410 738 connect localhost 12000;
#X obj 240 626 oscformat cat;
#X msg 57 57 \; pd dsp 1;
#X msg 57 111 \; pd dsp 0;
#X obj 182 15 adc~;
#X obj 182 61 *~ 1;
#X floatatom 215 42 5 0 0 0 - - -, f 5;
#X obj 182 89 sigmund~ -hop 4096 pitch env;
#X floatatom 183 125 5 0 0 0 - - -, f 5;
#X obj 183 147 moses 0;
#X floatatom 222 216 5 0 0 0 - - -, f 5;
#X obj 222 171 int;
#X obj 222 192 change;
#X floatatom 313 390 5 0 0 0 - - -, f 5;
#X floatatom 358 390 5 0 0 0 - - -, f 5;
#X floatatom 213 517 5 0 0 0 - - -, f 5;
#X obj 267 273 moses 55;
#X obj 313 305 moses 65;
#X obj 240 586 pack f f f;
#X obj 315 535 t b f;
#X obj 420 535 t b f;
#X obj 222 245 moses 45;
#X obj 213 435 expr $f1*256/10;
#X obj 267 357 - 44;
#X obj 213 490 line;
#X obj 314 435 expr $f1*256/10;
#X obj 315 490 line;
#X obj 420 490 line;
#X obj 420 435 expr $f1*256/10;
#X msg 213 464 \$1 500;
#X msg 315 464 \$1 500;
#X msg 420 464 \$1 500;
#X floatatom 315 517 5 0 0 0 - - -, f 5;
#X floatatom 420 517 5 0 0 0 - - -, f 5;
#X obj 313 357 - 54;
#X floatatom 267 390 5 0 0 0 - - -, f 5;
#X obj 358 357 - 64;
#X text 407 388 1-10;
#X obj 358 330 moses 76;
#X text 322 587 ３つの数値からリストを作る;
#X text 249 518 R;
#X text 453 516 B;
#X text 355 517 G;
#X text 456 490 直線的に滑らかな数値の変化;
#X text 526 435 数値のスケーリング 1-10から1-256;
#X text 490 516 RGBのための1-256の数値;
#X text 418 329 65以上76未満の数値を左アウトレットから出力
;
#X text 372 304 65以上数値を通過;
#X text 327 274 55以上の数値を通過;
#X text 283 244 MIDIノートナンバー45以上の数値を通過
;
#X text 270 190 数値が変化した時だけ通過;
#X text 265 215 ピッチ;
#X text 249 172 整数化;
#X text 241 147 0以上の数値を選り分けて通す;
#X text 360 91 ピッチの解析;
#X text 215 15 音の入力（マイク）;
#X text 333 626 リストをOSCパケットに変換する;
#X text 301 666 OSCパケットをリストに変換する;
#X text 518 688 OSCネットワークに出力;
#X text 562 737 ポート12000番にUDPデータとして送信;
#X text 496 764 送信を停止;
#X text 493 791 UDP 出力 \, バイナリデータ出力;
#X connect 0 0 5 0;
#X connect 1 0 2 0;
#X connect 3 0 4 0;
#X connect 4 0 2 0;
#X connect 6 0 2 0;
#X connect 7 0 3 0;
#X connect 7 0 0 0;
#X connect 10 0 11 0;
#X connect 11 0 13 0;
#X connect 12 0 11 1;
#X connect 13 0 14 0;
#X connect 14 0 15 0;
#X connect 15 1 17 0;
#X connect 16 0 27 0;
#X connect 17 0 18 0;
#X connect 18 0 16 0;
#X connect 19 0 31 0;
#X connect 20 0 34 0;
#X connect 21 0 24 0;
#X connect 22 0 29 0;
#X connect 22 1 23 0;
#X connect 23 0 40 0;
#X connect 23 1 44 0;
#X connect 24 0 7 0;
#X connect 25 0 24 0;
#X connect 25 1 24 1;
#X connect 26 0 24 0;
#X connect 26 1 24 2;
#X connect 27 1 22 0;
#X connect 28 0 35 0;
#X connect 29 0 41 0;
#X connect 30 0 21 0;
#X connect 31 0 36 0;
#X connect 32 0 38 0;
#X connect 33 0 39 0;
#X connect 34 0 37 0;
#X connect 35 0 30 0;
#X connect 36 0 32 0;
#X connect 37 0 33 0;
#X connect 38 0 25 0;
#X connect 39 0 26 0;
#X connect 40 0 19 0;
#X connect 41 0 28 0;
#X connect 42 0 20 0;
#X connect 44 0 42 0;
